<?xml version="1.0" encoding="UTF-8"?>
<svg id="_图层_1" data-name="图层 1" xmlns="http://www.w3.org/2000/svg" viewBox="0 0 40.13 32.17">
  <defs>
    <style>
      .cls-1 {
        fill: #0062b1;
        fill-rule: evenodd;
        stroke-width: 0px;
      }
    </style>
  </defs>
  <path class="cls-1" d="M32.64,24.26c-.23-.16-.45-.32-.67-.46l.34-1.36h-2.62c-.8-.43-1.58-.78-2.37-1.08l.03-.22h2.5l-.1.61h2.73l.59-2.33h-5.54c.18-1.16.24-2.22.25-3.03h7.31v-.37h-7.31c-.02-.92-.08-1.5-.08-1.5-.08-1.2-.25-2.3-.51-3.32,1.79-.65,3.64-1.59,5.53-2.92,0-.01-.02-.03-.02-.04l-.18-.26c-1.85,1.29-3.66,2.23-5.42,2.87-1.49-5.61-5.16-8.53-6.35-9.36,2.72.11,7.07.94,10.51,4.75,0,0,.66.75,1.43,2l.02.04s0,0,0,0c.86,1.4,1.85,3.4,2.22,5.67h5.19S39.05.78,22.03,0h-3.74S1.92.21.07,14.46c0,0-2.14,16.18,17.79,17.71h3.92s16.03.22,18.36-13.89h-5.19s-.33,2.92-2.3,5.98h0ZM29.54,22.78h0l-.21,1.08h-2.3l.25-2.12c.73.29,1.49.62,2.25,1.04h0ZM27.16,19.42h-2.22l-.13,1.16c-.18-.05-.37-.08-.54-.13l.13-1.12h-8.17l.16,1.12c-.17.05-.35.08-.53.11l-.16-1.2-2.64-.02c-.18-1.15-.25-2.17-.29-2.97h5.66c-.72.67-1.66.86-1.66.86-.19.18-3.37.48-3.37.48v1.02h13.43v-1.02s-3.18-.3-3.36-.48c0,0-.96-.19-1.68-.86h5.63c-.02.81-.07,1.85-.26,3.03h0ZM18.05,6.82h0c.84.22,1.02,1.11,1.02,1.11l.13,1.72.02,2.36c-2.17-.14-4.11-.64-5.76-1.23.83-2.85,2.23-5,3.52-6.54l-.08,2.26c.75.1,1.15.3,1.15.3h0ZM19.23,12.37h0l.02,2.29c-.03.58-.23,1-.48,1.36h-6.01c-.02-.86.03-1.39.03-1.4.1-1.26.3-2.41.58-3.48,1.66.6,3.64,1.1,5.87,1.23h0ZM12.93,21.08h0l.08.4c-.11.03-.21.08-.32.13h-1.82l-.16-.52h2.22ZM27.33,14.55h0s.08.56.08,1.47h-5.96c-.26-.35-.45-.78-.48-1.36l.03-2.26c1.82-.05,3.79-.37,5.85-1.08.24,1,.4,2.07.48,3.23h0ZM23.24,4.27h0c1.31,1.52,2.73,3.72,3.52,6.7-2.02.7-3.95,1.02-5.76,1.07l.02-2.38.13-1.72s.18-.89,1.02-1.11c0,0,.4-.21,1.15-.3l-.08-2.25h0ZM22.51,3.47h0c-.08-.03-.16-.05-.24-.06-1.69-.22-2.62-.22-4.32,0-.09.02-.17.05-.25.06,1.28-1.34,2.35-1.98,2.35-1.98-.03-.02,1.66,1.16,2.46,1.98h0ZM18.14,1.63h0s.45-.08,1.22-.11c-1.25.93-4.7,3.88-6.23,9.15-2.78-1.07-4.59-2.42-5-2.74,1.78-2.65,4.84-5.52,10.02-6.3h0ZM5.88,12.98h0s.45-2.25,2.05-4.75c.46.37,2.3,1.72,5.1,2.79-.29,1.1-.51,2.28-.59,3.59-.02,0-.05.54-.03,1.42h-6.84c.01-.96.11-1.98.32-3.04h0ZM5.56,16.39h6.84c.03.8.11,1.82.29,2.97h-5.31l1.2,4.5c-.3.22-.53.4-.62.48-1.33-1.96-2.4-4.59-2.4-7.94h0ZM8.17,24.63h0c.08-.06.26-.21.51-.4l.43,1.59c-.32-.37-.64-.77-.94-1.19h0ZM13.27,29.16h0s-2.09-1.02-4.09-3.27h2.81l-.08-.26-.09-.3-.49-1.9.53.54,1.89,1.9h1.15c1.06,1.87,2.59,3.92,4.8,5.01-1.81-.11-4.54-.49-6.43-1.72h0ZM15.31,25.87h1.22s-.02-.13-.02-.13l-2.27-2.31h2l-.34-2.51c.18-.03.35-.08.53-.11l.67,5.07h6.49l.25-1.96-4.44.02-.11-.59,4.62.03.18-1.6h-4.95l-.13-.6h5.17l.05-.37c.17.05.36.08.56.13l-.56,4.96h.61c-1.71,2.57-3.18,4.05-4.65,4.77-2.05-.7-3.72-2.86-4.86-4.8h0ZM21.71,30.91h0c-.42.02-.77.03-1.15,0,0,0,2.33-1.08,4.68-5h6.18c-1.97,2.28-5.02,4.35-9.72,5h0ZM31.46,25.86h0l.42-1.69c.19.13.38.26.58.4-.31.43-.63.88-.99,1.29Z"/>
</svg>